<svg width="21" height="23" viewBox="0 0 21 23" fill="none" xmlns="http://www.w3.org/2000/svg">
<path d="M6.87516 3.0417C6.55469 3.0417 6.24735 3.169 6.02074 3.39561C5.79414 3.62222 5.66683 3.92956 5.66683 4.25003C5.66683 4.5705 5.79414 4.87785 6.02074 5.10445C6.24735 5.33106 6.55469 5.45836 6.87516 5.45836C7.19563 5.45836 7.50298 5.33106 7.72958 5.10445C7.95619 4.87785 8.0835 4.5705 8.0835 4.25003C8.0835 3.92956 7.95619 3.62222 7.72958 3.39561C7.50298 3.169 7.19563 3.0417 6.87516 3.0417ZM3.45558 3.0417C3.70522 2.33418 4.16818 1.72151 4.78064 1.28815C5.39309 0.85479 6.12489 0.62207 6.87516 0.62207C7.62543 0.62207 8.35723 0.85479 8.96969 1.28815C9.58214 1.72151 10.0451 2.33418 10.2947 3.0417H18.9585C19.279 3.0417 19.5863 3.169 19.8129 3.39561C20.0395 3.62222 20.1668 3.92956 20.1668 4.25003C20.1668 4.5705 20.0395 4.87785 19.8129 5.10445C19.5863 5.33106 19.279 5.45836 18.9585 5.45836H10.2947C10.0451 6.16588 9.58214 6.77855 8.96969 7.21191C8.35723 7.64527 7.62543 7.87799 6.87516 7.87799C6.12489 7.87799 5.39309 7.64527 4.78064 7.21191C4.16818 6.77855 3.70522 6.16588 3.45558 5.45836H2.04183C1.72136 5.45836 1.41402 5.33106 1.18741 5.10445C0.960803 4.87785 0.833496 4.5705 0.833496 4.25003C0.833496 3.92956 0.960803 3.62222 1.18741 3.39561C1.41402 3.169 1.72136 3.0417 2.04183 3.0417H3.45558ZM14.1252 10.2917C13.8047 10.2917 13.4973 10.419 13.2707 10.6456C13.0441 10.8722 12.9168 11.1796 12.9168 11.5C12.9168 11.8205 13.0441 12.1278 13.2707 12.3545C13.4973 12.5811 13.8047 12.7084 14.1252 12.7084C14.4456 12.7084 14.753 12.5811 14.9796 12.3545C15.2062 12.1278 15.3335 11.8205 15.3335 11.5C15.3335 11.1796 15.2062 10.8722 14.9796 10.6456C14.753 10.419 14.4456 10.2917 14.1252 10.2917ZM10.7056 10.2917C10.9552 9.58418 11.4182 8.97151 12.0306 8.53815C12.6431 8.10479 13.3749 7.87207 14.1252 7.87207C14.8754 7.87207 15.6072 8.10479 16.2197 8.53815C16.8321 8.97151 17.2951 9.58418 17.5447 10.2917H18.9585C19.279 10.2917 19.5863 10.419 19.8129 10.6456C20.0395 10.8722 20.1668 11.1796 20.1668 11.5C20.1668 11.8205 20.0395 12.1278 19.8129 12.3545C19.5863 12.5811 19.279 12.7084 18.9585 12.7084H17.5447C17.2951 13.4159 16.8321 14.0285 16.2197 14.4619C15.6072 14.8953 14.8754 15.128 14.1252 15.128C13.3749 15.128 12.6431 14.8953 12.0306 14.4619C11.4182 14.0285 10.9552 13.4159 10.7056 12.7084H2.04183C1.72136 12.7084 1.41402 12.5811 1.18741 12.3545C0.960803 12.1278 0.833496 11.8205 0.833496 11.5C0.833496 11.1796 0.960803 10.8722 1.18741 10.6456C1.41402 10.419 1.72136 10.2917 2.04183 10.2917H10.7056ZM6.87516 17.5417C6.55469 17.5417 6.24735 17.669 6.02074 17.8956C5.79414 18.1222 5.66683 18.4296 5.66683 18.75C5.66683 19.0705 5.79414 19.3778 6.02074 19.6045C6.24735 19.8311 6.55469 19.9584 6.87516 19.9584C7.19563 19.9584 7.50298 19.8311 7.72958 19.6045C7.95619 19.3778 8.0835 19.0705 8.0835 18.75C8.0835 18.4296 7.95619 18.1222 7.72958 17.8956C7.50298 17.669 7.19563 17.5417 6.87516 17.5417ZM3.45558 17.5417C3.70522 16.8342 4.16818 16.2215 4.78064 15.7882C5.39309 15.3548 6.12489 15.1221 6.87516 15.1221C7.62543 15.1221 8.35723 15.3548 8.96969 15.7882C9.58214 16.2215 10.0451 16.8342 10.2947 17.5417H18.9585C19.279 17.5417 19.5863 17.669 19.8129 17.8956C20.0395 18.1222 20.1668 18.4296 20.1668 18.75C20.1668 19.0705 20.0395 19.3778 19.8129 19.6045C19.5863 19.8311 19.279 19.9584 18.9585 19.9584H10.2947C10.0451 20.6659 9.58214 21.2785 8.96969 21.7119C8.35723 22.1453 7.62543 22.378 6.87516 22.378C6.12489 22.378 5.39309 22.1453 4.78064 21.7119C4.16818 21.2785 3.70522 20.6659 3.45558 19.9584H2.04183C1.72136 19.9584 1.41402 19.8311 1.18741 19.6045C0.960803 19.3778 0.833496 19.0705 0.833496 18.75C0.833496 18.4296 0.960803 18.1222 1.18741 17.8956C1.41402 17.669 1.72136 17.5417 2.04183 17.5417H3.45558Z" fill="white"/>
</svg>
